<svg data-v-0dd9719b="" version="1.0" xmlns="http://www.w3.org/2000/svg" xmlns:xlink="http://www.w3.org/1999/xlink" width="100%" height="100%" viewBox="0 0 340.000000 250.000000" preserveAspectRatio="xMidYMid meet" color-interpolation-filters="sRGB" style="margin: auto;"> <rect data-v-0dd9719b="" x="0" y="0" width="100%" height="100%" fill="#fff" fill-opacity="1" class="background"></rect> <rect data-v-0dd9719b="" x="0" y="0" width="100%" height="100%" fill="url(#watermark)" fill-opacity="1" class="watermarklayer"></rect> <g data-v-0dd9719b="" fill="#0c0c0c" class="icon-text-wrapper icon-svg-group iconsvg" transform="translate(81.75000011920929,76.55101013183594)"><g class="iconsvg-imagesvg" transform="translate(58.25,0)"><g><rect fill="#0c0c0c" fill-opacity="0" stroke-width="2" x="0" y="0" width="60" height="58.80796259813579" class="image-rect"></rect> <svg x="0" y="0" width="60" height="58.80796259813579" filtersec="colorsb4425630666" class="image-svg-svg primary" style="overflow: visible;"><svg xmlns="http://www.w3.org/2000/svg" viewBox="0.3100004196166992 1.374999761581421 99.38999938964844 97.41499328613281"><path fill="#0C0C0C" d="M90.58 20.94L57.87 3.55c-4.97-2.9-11.18-2.9-16.15 0L9.42 20.94c-5.8 2.9-9.11 8.7-9.11 14.91v28.16c0 6.63 3.31 12.42 8.7 15.32l32.72 17.39c2.9 1.24 5.38 2.07 8.28 2.07s5.38-.83 7.87-1.66l32.3-16.56c5.8-2.9 9.52-8.7 9.52-15.32V36.26c-.01-6.62-3.32-12.42-9.12-15.32zM45.44 10.59c1.24-.83 2.48-1.24 4.14-1.24 1.66 0 2.9.41 4.56 1.24l32.21 17.12-30.97 14.77c-1.85.86-3.44 2.04-4.82 3.42L13.58 27.75l31.86-17.16zm-32.3 61.29c-2.9-1.66-4.56-4.56-4.56-7.87V35.85c0-.42.03-.83.08-1.23l37.57 18.44a17.54 17.54 0 0 0-.79 5.16l.36 31.03-32.66-17.37zm78.27-7.04c0 3.31-2.07 6.21-4.97 7.87L54.5 89.09l-.35-30.88c0-3.73 2.07-6.63 4.97-8.28L91.3 34.41c.07.47.12.95.12 1.44v28.99z"></path></svg></svg> <!----></g></g> <g transform="translate(0,65.80796432495117)"><g data-gra="path-name" fill-rule="" class="tp-name iconsvg-namesvg"><g transform="scale(1)"><g><path d="M16.63-30.91L16.63-30.91Q21.23-30.91 24.73-29.34L24.73-29.34Q28.83-27.45 30.49-23.03L30.49-23.03Q31.78-19.58 31.78-14.92L31.78-14.92Q31.78-10.23 30.21-6.77L30.21-6.77Q28.23-2.67 24.14-1.01L24.14-1.01Q21.1 0.18 17.13 0.18L17.13 0.18Q11.93 0.18 8.11-1.75L8.11-1.75Q4.88-3.36 3.18-6.82 1.47-10.27 1.47-15.2L1.47-15.2Q1.47-24 5.85-27.73L5.85-27.73Q9.53-30.86 16.63-30.91ZM16.67-25.75L16.67-25.75Q12.16-25.75 10.23-22.8L10.23-22.8Q8.66-20.5 8.66-15.38L8.66-15.38Q8.66-9.99 10.59-7.46L10.59-7.46Q12.53-4.97 16.72-4.97L16.72-4.97Q20.77-4.97 22.68-7.51 24.6-10.04 24.6-15.34L24.6-15.34Q24.6-20.17 23.03-22.71L23.03-22.71Q21.23-25.7 16.67-25.75ZM48.18-11.65L42.93-11.65 42.93 0 36.39 0 36.39-30.72 51.4-30.72Q57.85-30.72 60.38-29.06L60.38-29.06Q62.13-27.96 63.08-26.14 64.02-24.32 64.02-22.15L64.02-22.15Q64.02-17.78 61.81-15.38L61.81-15.38Q60.43-13.96 58.17-13.22L58.17-13.22Q59.97-12.57 60.89-11.86 61.81-11.15 62.55-9.76L62.55-9.76Q63.1-8.66 63.35-7.65 63.61-6.63 63.75-4.65L63.75-4.65Q64.02-1.34 64.48 0L64.48 0 57.16 0Q56.84-1.06 56.47-4.38L56.47-4.38Q56.24-7.05 55.52-8.47 54.81-9.9 53.38-10.73L53.38-10.73Q51.59-11.7 48.18-11.65L48.18-11.65ZM42.93-25.24L42.93-17.13 52.09-17.13Q54.4-17.13 55.36-17.82L55.36-17.82Q56.84-18.84 56.84-21.37L56.84-21.37Q56.84-24.18 54.63-24.96L54.63-24.96Q53.84-25.24 52.09-25.24L52.09-25.24 42.93-25.24ZM73.93 0L66.28 0 78.99-30.72 86.5-30.72 99.21 0 91.57 0 88.57-7.09 76.92-7.09 73.93 0ZM87.14-12.57L82.77-23.31 78.39-12.57 87.14-12.57ZM116.48-5.48L125.88-5.48 125.88 0 115.15 0Q112.11 0 110.5-0.32L110.5-0.32Q104.83-1.43 102.44-6.63L102.44-6.63Q100.87-10.13 100.87-15.29L100.87-15.29Q100.87-21.46 103.27-25.33L103.27-25.33Q105.02-28.14 107.94-29.43 110.86-30.72 115.47-30.72L115.47-30.72 125.88-30.72 125.88-25.24 116.21-25.24Q111.83-25.24 109.81-22.89L109.81-22.89Q108.1-20.96 108.1-15.89L108.1-15.89Q108.1-9.07 110.73-6.95L110.73-6.95Q112.57-5.48 116.48-5.48L116.48-5.48ZM130.07-13.45L130.07-30.72 136.57-30.72 136.57-13.45Q136.7-10.18 136.84-9.12L136.84-9.12Q137.16-7 138.87-6.24 140.57-5.48 144.86-5.48L144.86-5.48 151.12-5.48 151.12 0 144.17 0Q139.24 0 137.03-0.55L137.03-0.55Q131.96-2.03 130.58-7L130.58-7Q130.07-8.94 130.07-13.45L130.07-13.45ZM166.97-30.72L177.97-30.72 177.97-25.24 169.45-25.24Q166.14-25.24 164.62-24.78 163.1-24.32 162.08-22.98L162.08-22.98Q161.39-22.06 161.14-21.14 160.89-20.22 160.7-18.01L160.7-18.01 177.97-18.01 177.97-12.53 160.7-12.53Q161.07-8.57 163.05-7.02 165.03-5.48 169.77-5.48L169.77-5.48 177.97-5.48 177.97 0 169.45 0Q166 0 163.37-0.41L163.37-0.41Q159.23-1.11 156.79-4.05L156.79-4.05Q153.29-8.29 153.29-15.52L153.29-15.52Q153.29-23.54 158.21-28L158.21-28Q159.92-29.52 161.83-30.12 163.74-30.72 166.97-30.72L166.97-30.72Z" transform="translate(-1.4700000286102295, 30.90999984741211)"></path></g> <!----> <!----> <!----> <!----> <!----> <!----> <!----></g></g> <!----></g></g><defs v-gra="od"></defs></svg>